<?xml version="1.0" encoding="UTF-8"?>
<svg xmlns="http://www.w3.org/2000/svg" xmlns:xlink="http://www.w3.org/1999/xlink" width="124pt" height="50pt" viewBox="0 0 124 50" version="1.1">
<g id="surface1">
<path style=" stroke:none;fill-rule:nonzero;fill:rgb(238,238,238);fill-opacity:1;" d="M 1.429688 27.160156 L 9.5625 27.160156 L 9.5625 24.21875 L 10.28125 24.21875 C 10.570312 24.21875 10.8125 24.316406 11.015625 24.519531 C 11.214844 24.722656 11.316406 24.96875 11.316406 25.253906 L 11.316406 32.121094 L 9.5625 32.121094 L 9.5625 29.207031 L 1.429688 29.207031 Z M 1.429688 27.160156 "/>
<path style=" stroke:none;fill-rule:nonzero;fill:rgb(238,238,238);fill-opacity:1;" d="M 6.917969 37.3125 C 7.320312 37.023438 7.523438 36.628906 7.523438 36.128906 C 7.523438 35.589844 7.332031 35.179688 6.949219 34.890625 C 6.566406 34.601562 6.039062 34.457031 5.367188 34.457031 L 1.429688 34.457031 L 1.429688 32.496094 L 11.316406 32.496094 L 11.316406 33.476562 C 11.316406 33.746094 11.222656 33.976562 11.03125 34.167969 C 10.839844 34.359375 10.609375 34.457031 10.339844 34.457031 L 8.070312 34.457031 C 8.644531 34.804688 9.007812 35.292969 9.160156 35.929688 C 9.316406 36.5625 9.277344 37.167969 9.046875 37.746094 C 8.816406 38.285156 8.453125 38.734375 7.953125 39.101562 C 7.457031 39.464844 6.765625 39.648438 5.886719 39.648438 L 1.429688 39.648438 L 1.429688 37.714844 L 5.398438 37.714844 C 5.683594 37.714844 5.945312 37.691406 6.1875 37.644531 C 6.425781 37.597656 6.671875 37.484375 6.917969 37.3125 Z M 6.917969 37.3125 "/>
<path style=" stroke:none;fill-rule:nonzero;fill:rgb(238,238,238);fill-opacity:1;" d="M 3.785156 45.449219 L 3.785156 46.890625 C 2.980469 46.679688 2.367188 46.277344 1.949219 45.679688 C 1.507812 45.082031 1.285156 44.332031 1.285156 43.429688 C 1.285156 42.332031 1.640625 41.476562 2.351562 40.863281 C 3.039062 40.246094 4.027344 39.941406 5.308594 39.941406 C 6.535156 39.941406 7.496094 40.238281 8.183594 40.832031 C 8.894531 41.449219 9.246094 42.304688 9.246094 43.402344 C 9.246094 44.554688 8.902344 45.449219 8.214844 46.082031 C 7.503906 46.699219 6.515625 47.007812 5.253906 47.007812 C 5.175781 47.007812 5.109375 47.007812 5.050781 47.007812 C 4.992188 47.007812 4.957031 47.007812 4.9375 47.007812 C 4.839844 47.007812 4.773438 46.996094 4.734375 46.976562 L 4.734375 41.988281 C 4.140625 42.007812 3.699219 42.152344 3.414062 42.421875 C 3.105469 42.671875 2.953125 43.046875 2.953125 43.546875 C 2.953125 43.871094 3.019531 44.152344 3.15625 44.382812 C 3.171875 44.441406 3.207031 44.492188 3.253906 44.539062 C 3.300781 44.589844 3.355469 44.640625 3.414062 44.699219 C 3.46875 44.71875 3.546875 44.789062 3.644531 44.914062 C 3.738281 45.039062 3.785156 45.21875 3.785156 45.449219 Z M 6.027344 41.988281 L 6.027344 44.929688 C 6.546875 44.890625 6.929688 44.757812 7.179688 44.527344 C 7.445312 44.277344 7.582031 43.921875 7.582031 43.457031 C 7.582031 43.035156 7.445312 42.6875 7.179688 42.421875 C 6.910156 42.152344 6.527344 42.007812 6.027344 41.988281 Z M 6.027344 41.988281 "/>
<path style=" stroke:none;fill-rule:nonzero;fill:rgb(255,255,255);fill-opacity:1;" d="M 28.457031 9.964844 L 23.003906 9.964844 C 22.992188 10.296875 22.847656 10.625 22.539062 10.828125 C 22.496094 10.980469 22.414062 11.128906 22.285156 11.265625 C 19.8125 13.851562 17.246094 16.601562 13.804688 17.839844 C 12.675781 18.246094 12.140625 16.644531 12.980469 16.023438 C 12.671875 15.96875 12.371094 15.898438 12.082031 15.8125 L 12.082031 46.914062 L 19.679688 46.914062 L 19.679688 33.703125 L 28.992188 33.703125 C 32.632812 33.703125 35.414062 32.703125 37.339844 30.695312 C 39.265625 28.546875 40.230469 25.613281 40.230469 21.886719 C 40.230469 17.953125 39.230469 14.980469 37.234375 12.972656 C 35.308594 10.96875 32.378906 9.964844 28.457031 9.964844 Z M 31.347656 25.753906 C 30.492188 26.613281 29.0625 27.042969 27.066406 27.042969 L 19.679688 27.042969 L 19.679688 16.410156 L 27.492188 16.410156 C 29.132812 16.410156 30.453125 16.839844 31.453125 17.699219 C 32.308594 18.703125 32.738281 20.027344 32.738281 21.671875 C 32.738281 23.605469 32.273438 24.96875 31.347656 25.753906 Z M 31.347656 25.753906 "/>
<path style=" stroke:none;fill-rule:nonzero;fill:rgb(255,255,255);fill-opacity:1;" d="M 56.605469 18.34375 C 54.679688 18.34375 52.804688 18.59375 50.984375 19.097656 C 49.167969 19.597656 47.578125 20.386719 46.222656 21.457031 C 44.796875 22.605469 43.671875 24.128906 42.851562 26.023438 C 42.03125 27.921875 41.621094 30.265625 41.621094 33.058594 L 41.621094 46.914062 L 49.113281 46.914062 L 49.113281 32.199219 C 49.113281 30.050781 49.613281 28.476562 50.613281 27.472656 C 51.609375 26.472656 53.144531 25.96875 55.214844 25.96875 L 57.675781 25.96875 L 57.675781 18.34375 C 57.53125 18.34375 57.355469 18.34375 57.140625 18.34375 C 56.925781 18.34375 56.746094 18.34375 56.605469 18.34375 Z M 56.605469 18.34375 "/>
<path style=" stroke:none;fill-rule:nonzero;fill:rgb(255,255,255);fill-opacity:1;" d="M 76.191406 18.558594 C 73.835938 17.699219 71.195312 17.46875 68.269531 17.859375 C 65.34375 18.253906 62.953125 19.527344 61.101562 21.671875 C 59.957031 22.960938 59.121094 24.574219 58.585938 26.507812 C 58.050781 28.441406 57.78125 30.375 57.78125 32.308594 C 57.78125 34.671875 58.101562 36.945312 58.746094 39.128906 C 59.386719 41.3125 60.457031 43.046875 61.957031 44.335938 C 63.382812 45.625 65.289062 46.539062 67.683594 47.078125 C 70.070312 47.613281 72.445312 47.558594 74.800781 46.914062 C 77.4375 46.34375 79.617188 44.875 81.328125 42.511719 C 82.113281 41.367188 82.753906 39.972656 83.253906 38.324219 C 83.753906 36.675781 84.003906 34.707031 84.003906 32.414062 C 84.003906 29.265625 83.398438 26.507812 82.183594 24.144531 C 80.898438 21.496094 78.902344 19.632812 76.191406 18.558594 Z M 75.335938 38.753906 C 74.480469 40.042969 73.496094 40.847656 72.390625 41.167969 C 71.285156 41.492188 70.199219 41.457031 69.128906 41.0625 C 68.058594 40.667969 67.308594 40.183594 66.878906 39.613281 C 65.808594 38.324219 65.203125 36.050781 65.058594 32.789062 C 64.917969 29.535156 65.59375 27.082031 67.09375 25.433594 C 67.59375 24.933594 68.378906 24.519531 69.449219 24.199219 C 70.519531 23.875 71.589844 23.894531 72.660156 24.25 C 73.730469 24.609375 74.675781 25.433594 75.496094 26.722656 C 76.316406 28.011719 76.726562 29.945312 76.726562 32.523438 C 76.652344 35.386719 76.191406 37.464844 75.335938 38.753906 Z M 75.335938 38.753906 "/>
<path style=" stroke:none;fill-rule:nonzero;fill:rgb(255,255,255);fill-opacity:1;" d="M 97.0625 20.0625 L 92.460938 20.0625 L 92.460938 18.128906 C 92.460938 17.269531 92.636719 16.699219 92.996094 16.410156 C 93.421875 16.125 94.136719 15.980469 95.136719 15.980469 L 97.0625 15.980469 L 97.0625 10.074219 C 96.632812 10.003906 96.027344 9.964844 95.242188 9.964844 C 94.8125 9.894531 94.242188 9.859375 93.53125 9.859375 C 90.601562 9.859375 88.5 10.46875 87.214844 11.683594 C 85.859375 12.972656 85.179688 14.90625 85.179688 17.484375 L 85.179688 46.914062 L 92.460938 46.914062 L 92.460938 25.324219 L 93.53125 25.324219 C 94.457031 25.324219 95.277344 24.988281 95.992188 24.304688 C 96.703125 23.625 97.0625 22.746094 97.0625 21.671875 Z M 97.0625 20.0625 "/>
<path style=" stroke:none;fill-rule:nonzero;fill:rgb(255,255,255);fill-opacity:1;" d="M 120.179688 32.628906 C 118.75 31.414062 116.21875 30.339844 112.578125 29.40625 C 112.292969 29.40625 111.992188 29.371094 111.671875 29.300781 C 111.347656 29.230469 110.976562 29.121094 110.546875 28.976562 C 106.835938 28.191406 104.980469 27.222656 104.980469 26.078125 C 104.980469 25.21875 105.300781 24.574219 105.945312 24.144531 C 106.65625 23.714844 107.726562 23.5 109.15625 23.5 C 110.652344 23.5 111.832031 23.820312 112.6875 24.464844 C 112.972656 24.753906 113.257812 25.039062 113.542969 25.324219 C 114.253906 26.542969 115.289062 27.152344 116.648438 27.152344 L 121.25 27.152344 C 121.105469 24.289062 120 21.960938 117.929688 20.167969 C 115.71875 18.523438 112.757812 17.699219 109.046875 17.699219 C 105.625 17.699219 102.839844 18.523438 100.699219 20.167969 C 98.628906 21.960938 97.597656 24.214844 97.597656 26.9375 C 97.597656 29.085938 98.308594 30.804688 99.738281 32.09375 C 101.019531 33.382812 103.554688 34.492188 107.335938 35.421875 C 107.976562 35.636719 108.941406 35.851562 110.226562 36.066406 C 113.222656 36.710938 114.71875 37.679688 114.71875 38.96875 C 114.71875 39.828125 114.292969 40.507812 113.4375 41.007812 C 112.507812 41.507812 111.402344 41.757812 110.117188 41.757812 C 108.335938 41.757812 106.90625 41.402344 105.835938 40.6875 C 104.835938 39.972656 104.300781 38.898438 104.230469 37.464844 L 96.953125 37.464844 L 96.953125 37.785156 C 96.953125 40.9375 97.988281 43.335938 100.058594 44.980469 C 102.054688 46.628906 105.089844 47.453125 109.15625 47.453125 C 113.4375 47.453125 116.648438 46.664062 118.789062 45.089844 C 121.070312 43.371094 122.210938 40.9375 122.210938 37.785156 C 122.210938 35.636719 121.535156 33.917969 120.179688 32.628906 Z M 120.179688 32.628906 "/>
<path style=" stroke:none;fill-rule:nonzero;fill:rgb(255,202,5);fill-opacity:1;" d="M 17.964844 13.75 L 19.480469 10.941406 L 25.058594 0.589844 L 12.074219 3.542969 L 3.121094 13.5 L 15.132812 13.703125 Z M 17.964844 13.75 "/>
<path style=" stroke:none;fill-rule:nonzero;fill:rgb(255,202,5);fill-opacity:1;" d="M 3.542969 14.046875 L 7.132812 21.738281 L 9.0625 23.542969 L 8.402344 20.996094 Z M 3.542969 14.046875 "/>
<path style=" stroke:none;fill-rule:nonzero;fill:rgb(255,202,5);fill-opacity:1;" d="M 17.332031 20.355469 C 18.824219 20.382812 20.148438 20.246094 20.769531 19.882812 C 21.710938 19.328125 23.332031 16.90625 24.550781 14.546875 L 26.128906 10.410156 C 26.160156 10.121094 26.148438 9.882812 26.0625 9.738281 C 25.984375 9.601562 25.859375 9.492188 25.550781 9.125 L 23.003906 6.085938 L 20.488281 10.648438 L 18.347656 14.535156 L 14.480469 14.460938 L 8.871094 14.359375 L 10.40625 18.347656 C 10.40625 18.339844 10.40625 18.332031 10.410156 18.324219 C 10.410156 18.511719 10.449219 18.679688 10.53125 18.828125 C 10.648438 19.023438 10.929688 19.203125 11.316406 19.371094 C 11.839844 19.578125 14.210938 20.417969 17.332031 20.375 C 17.332031 20.367188 17.332031 20.363281 17.332031 20.355469 Z M 17.332031 20.355469 "/>
</g>
</svg>
